<?xml version="1.0" standalone="no"?>
<!DOCTYPE svg PUBLIC "-//W3C//DTD SVG 20010904//EN"
 "http://www.w3.org/TR/2001/REC-SVG-20010904/DTD/svg10.dtd">
<svg version="1.0" xmlns="http://www.w3.org/2000/svg"
 width="1024.000000pt" height="1024.000000pt" viewBox="0 0 1024.000000 1024.000000"
 preserveAspectRatio="xMidYMid meet">
<metadata>
Created by potrace 1.14, written by Peter Selinger 2001-2017
</metadata>
<g transform="translate(0.000000,1024.000000) scale(0.100000,-0.100000)"
fill="#000000" stroke="none">
<path d="M0 5120 l0 -5120 5120 0 5120 0 0 5120 0 5120 -5120 0 -5120 0 0
-5120z m4158 3648 c2 -56 0 -68 -13 -68 -11 0 -15 12 -15 50 l0 50 -402 0
c-462 0 -487 -3 -636 -76 -81 -39 -110 -60 -187 -138 -78 -77 -99 -105 -139
-186 -59 -121 -76 -201 -76 -367 0 -105 -3 -133 -14 -133 -19 0 -28 127 -16
247 18 188 85 330 219 464 94 94 173 144 292 185 110 37 177 42 599 40 l385
-1 3 -67z m-440 -395 c-3 -17 -26 -18 -286 -21 l-282 -2 0 -535 0 -535 286 0
c224 0 285 -3 282 -12 -4 -10 -72 -13 -299 -13 l-294 0 -3 555 c-1 305 0 561
3 568 3 9 73 12 300 12 277 0 296 -1 293 -17z m444 -1916 c2 -1027 0 -1867 -5
-1867 -4 0 -12 12 -17 26 -11 29 -14 3706 -3 3718 4 3 10 3 15 -2 4 -4 9 -848
10 -1875z m-447 1693 c0 -13 -27 -15 -172 -18 l-173 -2 0 -90 0 -89 123 -3
c100 -3 122 -6 122 -18 0 -13 -22 -15 -135 -15 l-135 0 -3 114 c-1 63 0 121 2
128 4 11 43 13 188 11 155 -3 183 -5 183 -18z m-99 -431 c13 -21 -22 -29 -133
-29 l-113 0 0 -90 0 -90 173 -2 c145 -3 172 -5 172 -18 0 -13 -27 -15 -185
-15 l-185 0 -3 114 c-1 63 0 121 2 128 7 17 261 19 272 2z m-926 -1910 c5
-1552 7 -1741 22 -1799 63 -253 182 -464 354 -630 87 -83 223 -179 319 -224
75 -36 257 -96 289 -96 25 0 46 -24 33 -36 -3 -3 -37 1 -76 10 -311 71 -590
266 -767 536 -120 183 -181 356 -203 579 -12 116 -16 3383 -4 3395 4 3 12 5
17 3 8 -3 13 -527 16 -1738z m954 481 c148 -362 223 -557 216 -564 -5 -5 -12
-7 -15 -4 -3 3 -103 243 -221 534 -119 291 -219 532 -223 536 -4 4 -106 -234
-226 -529 -194 -474 -245 -584 -245 -530 0 12 442 1106 457 1129 3 6 11 4 18
-4 8 -7 115 -263 239 -568z m-195 -112 c23 -57 41 -109 41 -115 0 -10 -26 -13
-96 -13 -72 0 -95 3 -92 13 3 8 30 13 76 15 40 2 72 5 72 7 0 2 -16 41 -35 87
-33 78 -38 108 -16 108 5 0 27 -46 50 -102z m158 -385 c34 -86 9 -101 -29 -17
l-19 44 -162 0 -163 0 -22 -52 c-16 -39 -25 -49 -33 -41 -9 9 -6 26 11 67 l22
56 187 0 186 0 22 -57z m178 -513 c0 -13 -51 -15 -385 -17 -376 -3 -438 1
-400 27 9 6 158 9 400 7 334 -2 385 -4 385 -17z m-490 -657 c0 -294 -4 -454
-10 -455 -7 -2 -11 149 -13 435 l-2 437 -135 0 c-87 0 -136 4 -141 11 -14 23
24 29 161 26 l140 -2 0 -452z m493 435 c3 -16 -8 -18 -132 -18 l-136 0 -2
-437 c-2 -338 -6 -437 -15 -441 -10 -3 -13 92 -13 451 0 249 3 457 7 461 4 3
70 5 147 4 125 -3 141 -5 144 -20z m2578 -638 c15 -6 286 -160 602 -342 448
-258 578 -338 593 -362 43 -70 34 -149 -23 -202 -18 -17 -289 -179 -603 -359
-545 -314 -572 -329 -620 -328 -82 0 -134 39 -155 113 -7 23 -5 29 11 33 12 3
19 0 19 -9 0 -28 31 -74 60 -89 67 -35 63 -37 686 323 620 356 614 353 614
426 0 53 -18 83 -69 115 -89 56 -1096 634 -1130 648 -30 13 -39 13 -78 -2 -56
-22 -83 -63 -83 -127 l0 -48 -217 0 c-313 0 -473 9 -473 27 0 13 47 14 329 7
l328 -7 5 50 c6 60 30 96 83 123 44 22 80 25 121 10z m-1964 -104 c36 -19 84
-37 107 -41 41 -7 60 -35 23 -35 -56 0 -212 73 -212 100 0 16 13 12 82 -24z
m713 -76 c0 -13 -21 -14 -140 -11 -144 3 -159 6 -149 22 3 6 64 8 147 7 118
-3 142 -6 142 -18z m-697 -1227 c3 -10 -29 -13 -137 -13 -120 0 -141 2 -141
15 0 13 20 15 137 13 98 -2 138 -6 141 -15z m1377 0 c220 -4 390 -9 378 -11
-13 -2 -23 -8 -23 -13 0 -10 -520 -10 -1049 0 -246 5 -325 9 -329 19 -4 14
381 16 1023 5z m-2982 -498 c47 -8 107 -23 134 -33 l48 -18 11 -114 c7 -63 12
-140 13 -170 0 -64 3 -66 -78 60 -176 277 -500 329 -717 115 -118 -116 -171
-281 -161 -499 6 -137 27 -218 85 -331 99 -189 311 -309 515 -291 141 13 172
58 172 256 0 100 -3 131 -17 157 -20 36 -35 42 -125 51 -40 4 -68 12 -71 20
-3 10 51 12 260 10 169 -2 262 -7 261 -13 -2 -5 -16 -13 -32 -18 -16 -4 -33
-15 -37 -25 -5 -9 -9 -107 -9 -217 l0 -199 -85 -17 c-217 -44 -521 -51 -660
-14 -282 74 -479 289 -509 556 -33 304 137 572 435 685 162 62 385 81 567 49z
m5526 -50 c63 -32 69 -146 11 -198 -30 -26 -38 -29 -86 -25 -63 5 -99 32 -114
87 -15 56 6 112 52 138 31 17 103 16 137 -2z m-4418 -462 c82 -41 150 -111
192 -201 30 -63 32 -73 32 -182 0 -110 -2 -119 -32 -181 -126 -255 -492 -327
-699 -137 -76 70 -115 146 -133 260 -29 181 59 349 223 428 89 42 127 49 246
47 97 -2 111 -5 171 -34z m1692 0 c10 -17 21 -49 25 -71 l7 -40 69 59 c89 76
141 97 198 80 92 -28 128 -115 74 -178 -20 -23 -32 -28 -69 -28 -38 0 -51 6
-90 43 -26 23 -54 42 -62 42 -23 0 -55 -18 -87 -48 l-28 -26 0 -256 c0 -215 2
-259 16 -278 22 -31 51 -44 114 -51 30 -3 54 -10 53 -16 -2 -6 -93 -10 -248
-10 -155 0 -246 4 -247 10 -2 6 11 11 28 13 18 2 42 14 55 28 24 25 24 28 27
273 5 340 -5 368 -111 337 -31 -9 -55 -12 -61 -6 -10 10 290 163 308 157 6 -2
19 -17 29 -34z m1002 26 c54 -15 98 -50 121 -96 17 -33 20 -69 24 -295 5 -242
6 -258 26 -285 19 -24 28 -28 73 -28 28 0 50 -4 49 -10 -1 -11 -215 -115 -235
-115 -22 0 -82 60 -93 95 l-11 34 -64 -45 c-35 -24 -79 -51 -99 -59 -44 -19
-156 -19 -200 -1 -96 40 -113 172 -32 244 34 30 84 51 276 120 l105 38 0 144
c0 128 -2 149 -20 180 -18 30 -27 35 -64 38 -68 5 -102 -37 -120 -148 -13 -77
-30 -105 -76 -120 -102 -34 -176 40 -130 129 33 64 187 151 311 175 88 18 110
18 159 5z m650 -29 c8 -15 17 -46 21 -69 4 -23 9 -41 11 -41 3 0 27 20 55 45
27 24 75 57 106 72 49 24 69 28 143 28 78 0 90 -3 135 -30 37 -24 56 -44 79
-90 l30 -59 3 -260 c1 -144 5 -271 7 -284 8 -34 41 -62 75 -62 20 0 30 -5 30
-15 0 -13 -30 -15 -210 -15 -138 0 -210 4 -210 10 0 11 7 14 53 25 52 11 59
49 55 304 -3 205 -5 229 -23 260 -11 19 -32 43 -46 53 -56 42 -174 31 -249
-23 l-40 -29 0 -228 c1 -295 8 -326 81 -341 18 -3 34 -12 37 -19 3 -9 -47 -12
-213 -12 -169 0 -216 3 -213 13 3 6 20 14 38 17 21 3 41 15 54 33 20 27 21 40
21 285 0 330 -7 349 -113 316 -56 -17 -62 -17 -62 -4 0 15 298 160 316 153 8
-3 21 -18 29 -33z m1115 -332 c0 -287 3 -354 15 -377 15 -31 33 -41 71 -41 15
0 24 -6 24 -15 0 -13 -30 -15 -210 -15 -138 0 -210 4 -210 10 0 11 7 14 53 25
53 11 58 45 55 337 l-3 260 -24 19 c-13 11 -30 18 -37 15 -7 -3 -29 -8 -50
-12 -75 -14 -27 20 131 92 118 54 162 70 172 62 10 -8 13 -86 13 -360z m-3820
82 c5 -269 6 -276 30 -324 36 -71 67 -91 143 -91 64 1 111 18 155 58 21 20 22
27 22 198 0 263 -15 308 -95 293 -24 -4 -35 -2 -35 6 0 16 266 142 293 138
l22 -3 6 -330 c3 -181 6 -331 7 -332 1 -2 12 -9 25 -18 21 -13 29 -13 70 -1
29 9 49 10 53 4 3 -5 4 -11 3 -13 -10 -8 -290 -145 -299 -145 -18 0 -41 47
-47 99 -3 28 -8 51 -10 51 -3 0 -27 -20 -54 -44 -71 -64 -130 -90 -216 -94
-84 -5 -132 9 -179 51 -73 63 -78 84 -84 347 -4 207 -7 239 -23 264 -17 26
-22 27 -63 21 -30 -4 -44 -3 -44 5 0 17 260 140 290 137 l25 -2 5 -275z"/>
<path d="M3600 1982 c-85 -42 -122 -223 -86 -422 28 -151 89 -260 168 -299 91
-44 162 -18 206 77 26 54 27 65 27 207 0 162 -9 212 -56 305 -61 123 -169 178
-259 132z"/>
<path d="M6470 1547 c-68 -34 -89 -49 -104 -78 -18 -32 -18 -41 -8 -78 21 -69
100 -92 168 -50 l34 21 0 114 c0 63 -1 114 -2 113 -2 0 -41 -19 -88 -42z"/>
</g>
</svg>
